<svg width="64" height="63" viewBox="0 0 64 63" fill="none" xmlns="http://www.w3.org/2000/svg">
<mask id="path-1-inside-1_5_552" fill="white">
<path d="M33.0269 61.7299C33.049 62.1681 32.7116 62.5423 32.273 62.5532C26.3396 62.701 20.4818 61.1456 15.397 58.063C10.0854 54.843 5.86111 50.1045 3.26969 44.4595C0.678279 38.8146 -0.16127 32.5223 0.859465 26.3954C1.8802 20.2684 4.71434 14.5882 8.99588 10.0882C13.2774 5.58826 18.8097 2.47523 24.8783 1.15115C30.947 -0.172934 37.2732 0.352753 43.04 2.66031C48.8069 4.96788 53.7495 8.95134 57.2295 14.0963C60.5611 19.0216 62.4058 24.7948 62.5533 30.7282C62.5642 31.1668 62.2071 31.5224 61.7684 31.5221C61.3296 31.5218 60.9753 31.1657 60.9638 30.7271C60.8166 25.1115 59.067 19.6487 55.9135 14.9865C52.6114 10.1047 47.9216 6.32502 42.4497 4.13549C36.9779 1.94596 30.9752 1.44716 25.217 2.70351C19.4588 3.95986 14.2095 6.91366 10.147 11.1835C6.08444 15.4532 3.39527 20.8429 2.42675 26.6565C1.45822 32.47 2.25483 38.4404 4.71369 43.7967C7.17255 49.1529 11.1807 53.649 16.2206 56.7043C21.0338 59.6221 26.5769 61.0979 32.1928 60.9658C32.6315 60.9555 33.0048 61.2917 33.0269 61.7299Z"/>
</mask>
<path d="M33.0269 61.7299C33.049 62.1681 32.7116 62.5423 32.273 62.5532C26.3396 62.701 20.4818 61.1456 15.397 58.063C10.0854 54.843 5.86111 50.1045 3.26969 44.4595C0.678279 38.8146 -0.16127 32.5223 0.859465 26.3954C1.8802 20.2684 4.71434 14.5882 8.99588 10.0882C13.2774 5.58826 18.8097 2.47523 24.8783 1.15115C30.947 -0.172934 37.2732 0.352753 43.04 2.66031C48.8069 4.96788 53.7495 8.95134 57.2295 14.0963C60.5611 19.0216 62.4058 24.7948 62.5533 30.7282C62.5642 31.1668 62.2071 31.5224 61.7684 31.5221C61.3296 31.5218 60.9753 31.1657 60.9638 30.7271C60.8166 25.1115 59.067 19.6487 55.9135 14.9865C52.6114 10.1047 47.9216 6.32502 42.4497 4.13549C36.9779 1.94596 30.9752 1.44716 25.217 2.70351C19.4588 3.95986 14.2095 6.91366 10.147 11.1835C6.08444 15.4532 3.39527 20.8429 2.42675 26.6565C1.45822 32.47 2.25483 38.4404 4.71369 43.7967C7.17255 49.1529 11.1807 53.649 16.2206 56.7043C21.0338 59.6221 26.5769 61.0979 32.1928 60.9658C32.6315 60.9555 33.0048 61.2917 33.0269 61.7299Z" stroke="white" stroke-width="2.19052" mask="url(#path-1-inside-1_5_552)"/>
<circle cx="61.3344" cy="32.8577" r="1.64289" stroke="white" stroke-width="1.09526"/>
<circle cx="35.0483" cy="61.3344" r="1.09526" fill="white"/>
<mask id="path-4-inside-2_5_552" fill="white">
<path d="M55.4536 30.9463C55.9099 30.934 56.2913 31.2942 56.2882 31.7507C56.2576 36.3495 54.9434 40.8546 52.486 44.7548C49.8814 48.8885 46.1096 52.1569 41.6475 54.1469C37.1854 56.1368 32.2334 56.759 27.4177 55.9345C22.602 55.1101 18.139 52.8762 14.5929 49.5153C11.0468 46.1543 8.57705 41.8174 7.49583 37.0528C6.41461 32.2882 6.77054 27.31 8.51861 22.7476C10.2667 18.1853 13.3284 14.2438 17.3165 11.4216C21.0795 8.75872 25.5077 7.2051 30.0983 6.92817C30.554 6.90068 30.9341 7.26215 30.9463 7.7185C30.9585 8.17485 30.5983 8.55317 30.1427 8.58175C25.879 8.84923 21.7675 10.2971 18.2715 12.7711C14.5502 15.4044 11.6934 19.0822 10.0624 23.3391C8.43128 27.5961 8.09917 32.2412 9.10802 36.6869C10.1169 41.1327 12.4214 45.1794 15.7301 48.3154C19.0389 51.4514 23.2033 53.5358 27.6967 54.3051C32.1901 55.0743 36.8107 54.4938 40.9742 52.637C45.1376 50.7802 48.657 47.7305 51.0873 43.8735C53.3704 40.25 54.5959 36.0668 54.6346 31.795C54.6388 31.3385 54.9972 30.9585 55.4536 30.9463Z"/>
</mask>
<path d="M55.4536 30.9463C55.9099 30.934 56.2913 31.2942 56.2882 31.7507C56.2576 36.3495 54.9434 40.8546 52.486 44.7548C49.8814 48.8885 46.1096 52.1569 41.6475 54.1469C37.1854 56.1368 32.2334 56.759 27.4177 55.9345C22.602 55.1101 18.139 52.8762 14.5929 49.5153C11.0468 46.1543 8.57705 41.8174 7.49583 37.0528C6.41461 32.2882 6.77054 27.31 8.51861 22.7476C10.2667 18.1853 13.3284 14.2438 17.3165 11.4216C21.0795 8.75872 25.5077 7.2051 30.0983 6.92817C30.554 6.90068 30.9341 7.26215 30.9463 7.7185C30.9585 8.17485 30.5983 8.55317 30.1427 8.58175C25.879 8.84923 21.7675 10.2971 18.2715 12.7711C14.5502 15.4044 11.6934 19.0822 10.0624 23.3391C8.43128 27.5961 8.09917 32.2412 9.10802 36.6869C10.1169 41.1327 12.4214 45.1794 15.7301 48.3154C19.0389 51.4514 23.2033 53.5358 27.6967 54.3051C32.1901 55.0743 36.8107 54.4938 40.9742 52.637C45.1376 50.7802 48.657 47.7305 51.0873 43.8735C53.3704 40.25 54.5959 36.0668 54.6346 31.795C54.6388 31.3385 54.9972 30.9585 55.4536 30.9463Z" stroke="white" stroke-width="2.19052" mask="url(#path-4-inside-2_5_552)"/>
<circle cx="32.2526" cy="8.15698" r="1.64289" stroke="white" stroke-width="1.09526"/>
<circle cx="55.253" cy="28.9669" r="1.09526" fill="white"/>
<mask id="path-7-inside-3_5_552" fill="white">
<path d="M14.1815 32.0538C13.7364 32.0826 13.3504 31.745 13.3409 31.2991C13.2696 27.9474 14.1047 24.633 15.7651 21.709C17.5586 18.5506 20.2367 15.9858 23.4696 14.3303C26.7025 12.6748 30.349 12.0011 33.96 12.392C37.571 12.7828 40.9888 14.2213 43.7925 16.5303C46.5963 18.8392 48.6635 21.9178 49.7395 25.3868C50.8156 28.8558 50.8536 32.5638 49.8488 36.0542C48.844 39.5445 46.8403 42.6648 44.0844 45.0306C41.5332 47.2209 38.4404 48.6761 35.1372 49.2488C34.6978 49.325 34.2924 49.0109 34.2354 48.5685C34.1783 48.1262 34.4911 47.7233 34.9303 47.6453C37.921 47.114 40.7202 45.7901 43.0323 43.8051C45.5491 41.6445 47.379 38.7949 48.2966 35.6073C49.2143 32.4198 49.1796 29.0334 48.1969 25.8653C47.2141 22.6972 45.3262 19.8857 42.7657 17.7771C40.2052 15.6685 37.0839 14.3548 33.7861 13.9978C30.4884 13.6408 27.1582 14.2561 24.2058 15.768C21.2534 17.2798 18.8076 19.6222 17.1696 22.5066C15.6649 25.1565 14.9023 28.1576 14.9544 31.1947C14.9621 31.6407 14.6266 32.025 14.1815 32.0538Z"/>
</mask>
<path d="M14.1815 32.0538C13.7364 32.0826 13.3504 31.745 13.3409 31.2991C13.2696 27.9474 14.1047 24.633 15.7651 21.709C17.5586 18.5506 20.2367 15.9858 23.4696 14.3303C26.7025 12.6748 30.349 12.0011 33.96 12.392C37.571 12.7828 40.9888 14.2213 43.7925 16.5303C46.5963 18.8392 48.6635 21.9178 49.7395 25.3868C50.8156 28.8558 50.8536 32.5638 49.8488 36.0542C48.844 39.5445 46.8403 42.6648 44.0844 45.0306C41.5332 47.2209 38.4404 48.6761 35.1372 49.2488C34.6978 49.325 34.2924 49.0109 34.2354 48.5685C34.1783 48.1262 34.4911 47.7233 34.9303 47.6453C37.921 47.114 40.7202 45.7901 43.0323 43.8051C45.5491 41.6445 47.379 38.7949 48.2966 35.6073C49.2143 32.4198 49.1796 29.0334 48.1969 25.8653C47.2141 22.6972 45.3262 19.8857 42.7657 17.7771C40.2052 15.6685 37.0839 14.3548 33.7861 13.9978C30.4884 13.6408 27.1582 14.2561 24.2058 15.768C21.2534 17.2798 18.8076 19.6222 17.1696 22.5066C15.6649 25.1565 14.9023 28.1576 14.9544 31.1947C14.9621 31.6407 14.6266 32.025 14.1815 32.0538Z" stroke="white" stroke-width="2.19052" mask="url(#path-7-inside-3_5_552)"/>
<circle cx="33.0514" cy="48.4273" r="1.64289" stroke="white" stroke-width="1.09526"/>
<circle cx="14.432" cy="34.189" r="1.09526" fill="white"/>
<path d="M23.8657 23.8657C23.8657 23.8657 26.298 23.9754 27.8141 24.3044C29.4025 24.6492 31.7625 25.6206 31.7625 25.6206V39.2205C31.7625 39.2205 29.4107 38.1185 27.8141 37.685C26.3055 37.2755 23.8657 37.027 23.8657 37.027V23.8657Z" fill="white"/>
<path d="M22.1109 25.6205H23.2077V38.1237C23.2077 38.1237 25.5294 38.3247 26.7173 38.5624C28.2866 38.8764 30.0076 39.6592 30.0076 39.6592H22.1109V25.6205Z" fill="white"/>
<path d="M40.0979 23.8657C40.0979 23.8657 37.6657 23.9754 36.1496 24.3044C34.5612 24.6492 32.2012 25.6206 32.2012 25.6206V39.2205C32.2012 39.2205 34.5529 38.1185 36.1496 37.685C37.6582 37.2755 40.0979 37.027 40.0979 37.027V23.8657Z" fill="white"/>
<path d="M41.8528 25.6205H40.756V38.1237C40.756 38.1237 38.4342 38.3247 37.2463 38.5624C35.6771 38.8764 33.956 39.6592 33.956 39.6592H41.8528V25.6205Z" fill="white"/>
</svg>
