<svg width="183" height="63" viewBox="0 0 183 63" fill="none" xmlns="http://www.w3.org/2000/svg">
<mask id="path-1-inside-1_513_2179" fill="white">
<path d="M33.0269 61.7301C33.049 62.1683 32.7116 62.5425 32.273 62.5534C26.3396 62.7012 20.4818 61.1457 15.397 58.0632C10.0854 54.8432 5.86111 50.1047 3.26969 44.4597C0.678279 38.8147 -0.16127 32.5225 0.859465 26.3955C1.8802 20.2686 4.71434 14.5884 8.99588 10.0884C13.2774 5.58844 18.8097 2.47541 24.8783 1.15133C30.947 -0.172751 37.2732 0.352936 43.04 2.6605C48.8069 4.96806 53.7495 8.95152 57.2295 14.0964C60.5611 19.0218 62.4058 24.795 62.5533 30.7284C62.5642 31.167 62.2071 31.5226 61.7684 31.5223C61.3296 31.522 60.9753 31.1659 60.9638 30.7273C60.8166 25.1117 59.067 19.6488 55.9135 14.9867C52.6114 10.1049 47.9216 6.3252 42.4497 4.13567C36.9779 1.94614 30.9752 1.44734 25.217 2.7037C19.4588 3.96005 14.2095 6.91385 10.147 11.1836C6.08444 15.4534 3.39527 20.8431 2.42675 26.6567C1.45822 32.4702 2.25483 38.4406 4.71369 43.7968C7.17255 49.1531 11.1807 53.6492 16.2206 56.7045C21.0338 59.6223 26.5769 61.0981 32.1928 60.966C32.6315 60.9557 33.0048 61.2919 33.0269 61.7301Z"/>
</mask>
<path d="M33.0269 61.7301C33.049 62.1683 32.7116 62.5425 32.273 62.5534C26.3396 62.7012 20.4818 61.1457 15.397 58.0632C10.0854 54.8432 5.86111 50.1047 3.26969 44.4597C0.678279 38.8147 -0.16127 32.5225 0.859465 26.3955C1.8802 20.2686 4.71434 14.5884 8.99588 10.0884C13.2774 5.58844 18.8097 2.47541 24.8783 1.15133C30.947 -0.172751 37.2732 0.352936 43.04 2.6605C48.8069 4.96806 53.7495 8.95152 57.2295 14.0964C60.5611 19.0218 62.4058 24.795 62.5533 30.7284C62.5642 31.167 62.2071 31.5226 61.7684 31.5223C61.3296 31.522 60.9753 31.1659 60.9638 30.7273C60.8166 25.1117 59.067 19.6488 55.9135 14.9867C52.6114 10.1049 47.9216 6.3252 42.4497 4.13567C36.9779 1.94614 30.9752 1.44734 25.217 2.7037C19.4588 3.96005 14.2095 6.91385 10.147 11.1836C6.08444 15.4534 3.39527 20.8431 2.42675 26.6567C1.45822 32.4702 2.25483 38.4406 4.71369 43.7968C7.17255 49.1531 11.1807 53.6492 16.2206 56.7045C21.0338 59.6223 26.5769 61.0981 32.1928 60.966C32.6315 60.9557 33.0048 61.2919 33.0269 61.7301Z" stroke="black" stroke-width="2.19052" mask="url(#path-1-inside-1_513_2179)"/>
<circle cx="61.3343" cy="32.8575" r="1.64289" stroke="black" stroke-width="1.09526"/>
<circle cx="35.0481" cy="61.3345" r="1.09526" fill="black"/>
<mask id="path-4-inside-2_513_2179" fill="white">
<path d="M55.4538 30.9462C55.9101 30.934 56.2914 31.2941 56.2884 31.7506C56.2578 36.3494 54.9436 40.8546 52.4862 44.7548C49.8816 48.8884 46.1098 52.1568 41.6477 54.1468C37.1856 56.1368 32.2336 56.7589 27.4179 55.9344C22.6022 55.11 18.1392 52.8761 14.5931 49.5152C11.047 46.1543 8.57723 41.8173 7.49601 37.0527C6.41479 32.2881 6.77073 27.3099 8.5188 22.7476C10.2669 18.1852 13.3286 14.2438 17.3167 11.4215C21.0797 8.75863 25.5079 7.20501 30.0985 6.92808C30.5542 6.90059 30.9342 7.26206 30.9465 7.71841C30.9587 8.17476 30.5985 8.55308 30.1429 8.58166C25.8792 8.84914 21.7677 10.297 18.2717 12.771C14.5504 15.4044 11.6936 19.0821 10.0625 23.3391C8.43146 27.596 8.09935 32.2411 9.10821 36.6868C10.1171 41.1326 12.4216 45.1793 15.7303 48.3153C19.0391 51.4513 23.2035 53.5357 27.6969 54.305C32.1903 55.0742 36.8108 54.4937 40.9743 52.6369C45.1378 50.7801 48.6572 47.7304 51.0875 43.8735C53.3706 40.2499 54.5961 36.0667 54.6348 31.7949C54.6389 31.3384 54.9974 30.9584 55.4538 30.9462Z"/>
</mask>
<path d="M55.4538 30.9462C55.9101 30.934 56.2914 31.2941 56.2884 31.7506C56.2578 36.3494 54.9436 40.8546 52.4862 44.7548C49.8816 48.8884 46.1098 52.1568 41.6477 54.1468C37.1856 56.1368 32.2336 56.7589 27.4179 55.9344C22.6022 55.11 18.1392 52.8761 14.5931 49.5152C11.047 46.1543 8.57723 41.8173 7.49601 37.0527C6.41479 32.2881 6.77073 27.3099 8.5188 22.7476C10.2669 18.1852 13.3286 14.2438 17.3167 11.4215C21.0797 8.75863 25.5079 7.20501 30.0985 6.92808C30.5542 6.90059 30.9342 7.26206 30.9465 7.71841C30.9587 8.17476 30.5985 8.55308 30.1429 8.58166C25.8792 8.84914 21.7677 10.297 18.2717 12.771C14.5504 15.4044 11.6936 19.0821 10.0625 23.3391C8.43146 27.596 8.09935 32.2411 9.10821 36.6868C10.1171 41.1326 12.4216 45.1793 15.7303 48.3153C19.0391 51.4513 23.2035 53.5357 27.6969 54.305C32.1903 55.0742 36.8108 54.4937 40.9743 52.6369C45.1378 50.7801 48.6572 47.7304 51.0875 43.8735C53.3706 40.2499 54.5961 36.0667 54.6348 31.7949C54.6389 31.3384 54.9974 30.9584 55.4538 30.9462Z" stroke="black" stroke-width="2.19052" mask="url(#path-4-inside-2_513_2179)"/>
<circle cx="32.2528" cy="8.15682" r="1.64289" stroke="black" stroke-width="1.09526"/>
<circle cx="55.2532" cy="28.9668" r="1.09526" fill="black"/>
<mask id="path-7-inside-3_513_2179" fill="white">
<path d="M14.1815 32.0536C13.7364 32.0825 13.3504 31.7449 13.3409 31.299C13.2696 27.9472 14.1047 24.6328 15.765 21.7089C17.5585 18.5505 20.2367 15.9857 23.4695 14.3302C26.7024 12.6747 30.3489 12.0009 33.9599 12.3918C37.5709 12.7827 40.9887 14.2212 43.7925 16.5302C46.5962 18.8391 48.6634 21.9176 49.7395 25.3867C50.8156 28.8557 50.8536 32.5637 49.8488 36.0541C48.8439 39.5444 46.8402 42.6646 44.0844 45.0305C41.5331 47.2208 38.4404 48.676 35.1372 49.2487C34.6977 49.3249 34.2924 49.0108 34.2353 48.5684C34.1782 48.1261 34.4911 47.7231 34.9302 47.6451C37.9209 47.1139 40.7201 45.79 43.0323 43.805C45.5491 41.6443 47.379 38.7948 48.2966 35.6072C49.2142 32.4197 49.1795 29.0333 48.1968 25.8652C47.2141 22.6971 45.3262 19.8856 42.7657 17.777C40.2052 15.6683 37.0838 14.3546 33.7861 13.9977C30.4883 13.6407 27.1582 14.256 24.2057 15.7679C21.2533 17.2797 18.8075 19.6221 17.1696 22.5065C15.6648 25.1564 14.9023 28.1575 14.9544 31.1946C14.962 31.6405 14.6266 32.0248 14.1815 32.0536Z"/>
</mask>
<path d="M14.1815 32.0536C13.7364 32.0825 13.3504 31.7449 13.3409 31.299C13.2696 27.9472 14.1047 24.6328 15.765 21.7089C17.5585 18.5505 20.2367 15.9857 23.4695 14.3302C26.7024 12.6747 30.3489 12.0009 33.9599 12.3918C37.5709 12.7827 40.9887 14.2212 43.7925 16.5302C46.5962 18.8391 48.6634 21.9176 49.7395 25.3867C50.8156 28.8557 50.8536 32.5637 49.8488 36.0541C48.8439 39.5444 46.8402 42.6646 44.0844 45.0305C41.5331 47.2208 38.4404 48.676 35.1372 49.2487C34.6977 49.3249 34.2924 49.0108 34.2353 48.5684C34.1782 48.1261 34.4911 47.7231 34.9302 47.6451C37.9209 47.1139 40.7201 45.79 43.0323 43.805C45.5491 41.6443 47.379 38.7948 48.2966 35.6072C49.2142 32.4197 49.1795 29.0333 48.1968 25.8652C47.2141 22.6971 45.3262 19.8856 42.7657 17.777C40.2052 15.6683 37.0838 14.3546 33.7861 13.9977C30.4883 13.6407 27.1582 14.256 24.2057 15.7679C21.2533 17.2797 18.8075 19.6221 17.1696 22.5065C15.6648 25.1564 14.9023 28.1575 14.9544 31.1946C14.962 31.6405 14.6266 32.0248 14.1815 32.0536Z" stroke="black" stroke-width="2.19052" mask="url(#path-7-inside-3_513_2179)"/>
<circle cx="33.0514" cy="48.4273" r="1.64289" stroke="black" stroke-width="1.09526"/>
<circle cx="14.4319" cy="34.189" r="1.09526" fill="black"/>
<path d="M23.8657 23.8657C23.8657 23.8657 26.298 23.9754 27.8141 24.3044C29.4025 24.6492 31.7625 25.6206 31.7625 25.6206V39.2205C31.7625 39.2205 29.4107 38.1185 27.8141 37.685C26.3055 37.2755 23.8657 37.027 23.8657 37.027V23.8657Z" fill="#9F1F19"/>
<path d="M22.1108 25.6206H23.2076V38.1238C23.2076 38.1238 25.5294 38.3248 26.7173 38.5625C28.2865 38.8765 30.0076 39.6593 30.0076 39.6593H22.1108V25.6206Z" fill="#9F1F19"/>
<path d="M40.0979 23.8657C40.0979 23.8657 37.6656 23.9754 36.1495 24.3044C34.5612 24.6492 32.2012 25.6206 32.2012 25.6206V39.2205C32.2012 39.2205 34.5529 38.1185 36.1495 37.685C37.6581 37.2755 40.0979 37.027 40.0979 37.027V23.8657Z" fill="#9F1F19"/>
<path d="M41.8528 25.6206H40.756V38.1238C40.756 38.1238 38.4343 38.3248 37.2463 38.5625C35.6771 38.8765 33.956 39.6593 33.956 39.6593H41.8528V25.6206Z" fill="#9F1F19"/>
<path d="M78.9997 40V19H87.6397C89.4997 19 91.0897 19.3 92.4097 19.9C93.7497 20.5 94.7797 21.36 95.4997 22.48C96.2197 23.6 96.5797 24.93 96.5797 26.47C96.5797 28.01 96.2197 29.34 95.4997 30.46C94.7797 31.56 93.7497 32.41 92.4097 33.01C91.0897 33.59 89.4997 33.88 87.6397 33.88H81.1597L82.8997 32.11V40H78.9997ZM92.7397 40L87.4297 32.38H91.5997L96.9397 40H92.7397ZM82.8997 32.53L81.1597 30.67H87.4597C89.1797 30.67 90.4697 30.3 91.3297 29.56C92.2097 28.82 92.6497 27.79 92.6497 26.47C92.6497 25.13 92.2097 24.1 91.3297 23.38C90.4697 22.66 89.1797 22.3 87.4597 22.3H81.1597L82.8997 20.38V32.53ZM108.113 40.21C106.333 40.21 104.773 39.86 103.433 39.16C102.113 38.44 101.083 37.46 100.343 36.22C99.623 34.98 99.263 33.57 99.263 31.99C99.263 30.39 99.613 28.98 100.313 27.76C101.033 26.52 102.013 25.55 103.253 24.85C104.513 24.15 105.943 23.8 107.543 23.8C109.103 23.8 110.493 24.14 111.713 24.82C112.933 25.5 113.893 26.46 114.593 27.7C115.293 28.94 115.643 30.4 115.643 32.08C115.643 32.24 115.633 32.42 115.613 32.62C115.613 32.82 115.603 33.01 115.583 33.19H102.233V30.7H113.603L112.133 31.48C112.153 30.56 111.963 29.75 111.563 29.05C111.163 28.35 110.613 27.8 109.913 27.4C109.233 27 108.443 26.8 107.543 26.8C106.623 26.8 105.813 27 105.113 27.4C104.433 27.8 103.893 28.36 103.493 29.08C103.113 29.78 102.923 30.61 102.923 31.57V32.17C102.923 33.13 103.143 33.98 103.583 34.72C104.023 35.46 104.643 36.03 105.443 36.43C106.243 36.83 107.163 37.03 108.203 37.03C109.103 37.03 109.913 36.89 110.633 36.61C111.353 36.33 111.993 35.89 112.553 35.29L114.563 37.6C113.843 38.44 112.933 39.09 111.833 39.55C110.753 39.99 109.513 40.21 108.113 40.21ZM128.676 40V36.76L128.466 36.07V30.4C128.466 29.3 128.136 28.45 127.476 27.85C126.816 27.23 125.816 26.92 124.476 26.92C123.576 26.92 122.686 27.06 121.806 27.34C120.946 27.62 120.216 28.01 119.616 28.51L118.146 25.78C119.006 25.12 120.026 24.63 121.206 24.31C122.406 23.97 123.646 23.8 124.926 23.8C127.246 23.8 129.036 24.36 130.296 25.48C131.576 26.58 132.216 28.29 132.216 30.61V40H128.676ZM123.636 40.21C122.436 40.21 121.386 40.01 120.486 39.61C119.586 39.19 118.886 38.62 118.386 37.9C117.906 37.16 117.666 36.33 117.666 35.41C117.666 34.51 117.876 33.7 118.296 32.98C118.736 32.26 119.446 31.69 120.426 31.27C121.406 30.85 122.706 30.64 124.326 30.64H128.976V33.13H124.596C123.316 33.13 122.456 33.34 122.016 33.76C121.576 34.16 121.356 34.66 121.356 35.26C121.356 35.94 121.626 36.48 122.166 36.88C122.706 37.28 123.456 37.48 124.416 37.48C125.336 37.48 126.156 37.27 126.876 36.85C127.616 36.43 128.146 35.81 128.466 34.99L129.096 37.24C128.736 38.18 128.086 38.91 127.146 39.43C126.226 39.95 125.056 40.21 123.636 40.21ZM143.838 40.21C142.298 40.21 140.908 39.87 139.668 39.19C138.448 38.49 137.488 37.53 136.788 36.31C136.088 35.09 135.738 33.65 135.738 31.99C135.738 30.33 136.088 28.89 136.788 27.67C137.488 26.45 138.448 25.5 139.668 24.82C140.908 24.14 142.298 23.8 143.838 23.8C145.178 23.8 146.378 24.1 147.438 24.7C148.498 25.28 149.338 26.17 149.958 27.37C150.578 28.57 150.888 30.11 150.888 31.99C150.888 33.85 150.588 35.39 149.988 36.61C149.388 37.81 148.558 38.71 147.498 39.31C146.438 39.91 145.218 40.21 143.838 40.21ZM144.288 37C145.188 37 145.988 36.8 146.688 36.4C147.408 36 147.978 35.42 148.398 34.66C148.838 33.9 149.058 33.01 149.058 31.99C149.058 30.95 148.838 30.06 148.398 29.32C147.978 28.56 147.408 27.98 146.688 27.58C145.988 27.18 145.188 26.98 144.288 26.98C143.388 26.98 142.578 27.18 141.858 27.58C141.158 27.98 140.588 28.56 140.148 29.32C139.728 30.06 139.518 30.95 139.518 31.99C139.518 33.01 139.728 33.9 140.148 34.66C140.588 35.42 141.158 36 141.858 36.4C142.578 36.8 143.388 37 144.288 37ZM149.148 40V36.22L149.298 31.96L148.998 27.7V17.74H152.718V40H149.148Z" fill="black"/>
<path d="M158.013 40V19H161.913V40H158.013ZM171.853 40V22.3H164.893V19H182.713V22.3H175.753V40H171.853Z" fill="#9F1F19"/>
</svg>
