<svg width="31" height="31" viewBox="0 0 31 31" fill="none" xmlns="http://www.w3.org/2000/svg">
<g clip-path="url(#clip0_446_2201)">
<path d="M15.5 31C24.0604 31 31 24.0604 31 15.5C31 6.93959 24.0604 0 15.5 0C6.93959 0 0 6.93959 0 15.5C0 24.0604 6.93959 31 15.5 31Z" fill="url(#paint0_linear_446_2201)"/>
<path d="M5.7726 16.2583C7.58455 15.2602 9.60717 14.4272 11.497 13.5899C14.7483 12.2186 18.0124 10.871 21.3095 9.61637C21.951 9.4026 23.1037 9.19361 23.2167 10.1443C23.1547 11.4899 22.9002 12.8277 22.7256 14.1655C22.2824 17.1074 21.77 20.0392 21.2705 22.9714C21.0984 23.9481 19.8749 24.4537 19.092 23.8287C17.2106 22.5577 15.3147 21.2994 13.4572 19.9989C12.8489 19.3807 13.4131 18.4928 13.9563 18.0513C15.506 16.5242 17.1493 15.2267 18.618 13.6207C19.0141 12.6641 17.8436 13.4703 17.4575 13.7174C15.3361 15.1793 13.2666 16.7305 11.0299 18.0153C9.88746 18.6442 8.55588 18.1068 7.41392 17.7557C6.39002 17.3319 4.88962 16.9047 5.77247 16.2584L5.7726 16.2583Z" fill="white"/>
</g>
<defs>
<linearGradient id="paint0_linear_446_2201" x1="20.668" y1="5.1677" x2="12.918" y2="23.25" gradientUnits="userSpaceOnUse">
<stop stop-color="#37AEE2"/>
<stop offset="1" stop-color="#1E96C8"/>
</linearGradient>
<clipPath id="clip0_446_2201">
<rect width="31" height="31" fill="white"/>
</clipPath>
</defs>
</svg>
