<svg width="33" height="33" viewBox="0 0 33 33" fill="none" xmlns="http://www.w3.org/2000/svg">
<g clip-path="url(#clip0_446_2199)">
<path d="M16.1452 24.8035H18.117C18.117 24.8035 18.713 24.7375 19.0162 24.4095C19.2967 24.1084 19.2864 23.5433 19.2864 23.5433C19.2864 23.5433 19.2472 20.8971 20.4765 20.5073C21.6872 20.1237 23.2423 23.0648 24.8902 24.1971C26.136 25.053 27.0827 24.8654 27.0827 24.8654L31.4902 24.8035C31.4902 24.8035 33.7961 24.6612 32.703 22.8482C32.6143 22.6997 32.0657 21.5076 29.4257 19.0573C26.6619 16.4916 27.0332 16.9082 30.362 12.4718C32.3895 9.76991 33.2 8.11991 32.9463 7.41454C32.705 6.74216 31.2138 6.91954 31.2138 6.91954L26.2556 6.94841C26.2556 6.94841 25.8885 6.89891 25.6142 7.06185C25.3481 7.22273 25.1769 7.59398 25.1769 7.59398C25.1769 7.59398 24.3911 9.68535 23.3433 11.4632C21.1344 15.2149 20.2496 15.4129 19.8887 15.1799C19.0492 14.6374 19.2596 12.9977 19.2596 11.8345C19.2596 8.19829 19.8103 6.68235 18.185 6.29048C17.6447 6.16054 17.2487 6.07391 15.8688 6.05948C14.0992 6.04091 12.5998 6.06566 11.7521 6.48023C11.187 6.7566 10.7518 7.37329 11.0178 7.40835C11.3458 7.45166 12.0883 7.60841 12.4822 8.14466C12.9917 8.8356 12.9731 10.3907 12.9731 10.3907C12.9731 10.3907 13.266 14.6704 12.2904 15.2025C11.6201 15.5676 10.7023 14.823 8.7326 11.4179C7.72403 9.67504 6.96091 7.7466 6.96091 7.7466C6.96091 7.7466 6.81447 7.38773 6.55253 7.19591C6.23491 6.96285 5.78941 6.8886 5.78941 6.8886L1.07453 6.91748C1.07453 6.91748 0.367097 6.9381 0.107222 7.24541C-0.123778 7.51973 0.0886597 8.08485 0.0886597 8.08485C0.0886597 8.08485 3.78053 16.7205 7.95916 21.0745C11.7933 25.0654 16.1452 24.8035 16.1452 24.8035Z" fill="#1E88E5"/>
</g>
<defs>
<clipPath id="clip0_446_2199">
<rect width="33" height="33" fill="white"/>
</clipPath>
</defs>
</svg>
